# xmcd CD database file generated by Grip 3.2.0
# 
# Track frame offsets:
#       183
#       11815
#       20498
#       37393
#       48295
#       62453
#       82648
#       97010
#       107828
#       122815
#       138383
#       156120
# 
# Disc length: 2257 seconds
# 
# Revision: 4
# Processed by: cddbd v1.5.2PL0 Copyright (c) Steve Scherf et al.
# Submitted via: Grip 3.2.0
# 
DISCID=9908cf0c
DTITLE=Elis Regina - Elis (1966)
DYEAR=1966
DGENRE=Other
TTITLE0=Roda
TTITLE1=Samba em Paz
TTITLE2=Pra dizer adeus
TTITLE3=Estatuinha
TTITLE4=Veleiro
TTITLE5=Boa Palavra
TTITLE6=Lunik 9
TTITLE7=Tem mais Samba
TTITLE8=Sonho de Maria
TTITLE9=Tereza sabe sambar
TTITLE10=Carinhoso
TTITLE11=Canção do Sal
EXTD=YEAR: 1966
EXTT0=
EXTT1=
EXTT2=
EXTT3=
EXTT4=
EXTT5=
EXTT6=
EXTT7=
EXTT8=
EXTT9=
EXTT10=
EXTT11=
PLAYORDER=
